<svg width="24" height="25" viewBox="0 0 24 25" fill="none" xmlns="http://www.w3.org/2000/svg">
<g clip-path="url(#clip0_9_3307)">
<path d="M8.21906 16.272C7.17906 17.912 6.20406 18.961 5.60406 18.961C5.52906 18.961 5.37906 18.961 5.30406 18.886C5.22906 18.736 5.15406 18.586 5.22906 18.436C5.30406 17.837 6.50406 17.012 8.21906 16.272Z" fill="#E62121"/>
<path d="M11.133 9.394C10.533 7.754 10.608 6.554 10.833 6.104C10.908 5.954 11.058 5.879 11.208 5.879C11.583 5.879 11.658 6.329 11.658 6.704C11.583 7.603 11.433 8.569 11.133 9.394Z" fill="#E62121"/>
<path d="M11.7331 12.158C12.1051 12.828 12.7721 13.571 13.0751 13.939C12.9511 13.928 11.7271 14.202 10.7581 14.547C11.1331 13.873 11.5831 12.608 11.7331 12.158Z" fill="#E62121"/>
<path d="M13.082 13.948C13.08 13.945 13.077 13.942 13.074 13.939C13.086 13.94 13.088 13.943 13.082 13.948Z" fill="#E62121"/>
<path d="M18.0871 15.072C18.0121 15.372 17.6371 15.672 16.9621 15.522C16.1371 15.297 15.3971 14.922 14.7971 14.397C15.3221 14.322 16.5871 14.172 17.4861 14.322C17.7871 14.397 18.1621 14.622 18.0871 15.072Z" fill="#E62121"/>
<path d="M19.736 0.799988H4.264C1.865 0.799988 0 2.66499 0 5.05399V19.936C0 22.326 1.94 24.19 4.264 24.2H19.736C22.135 24.2 24 22.251 24 19.936V5.06399C24 2.66499 22.05 0.799988 19.736 0.799988ZM19.38 15.503C19.239 15.878 18.864 16.328 17.815 16.328C17.065 16.328 15.566 16.112 13.926 14.613C12.502 14.838 11.087 15.288 10.187 15.588C9.062 17.538 7.488 19.702 5.923 19.702C5.548 19.702 5.173 19.627 4.873 19.327C4.573 19.102 4.423 18.652 4.498 18.277C4.723 16.927 7.338 15.737 8.537 15.288C9.427 13.723 10.177 11.708 10.627 10.359C9.802 8.49399 9.577 6.70399 10.102 5.80499C10.327 5.42999 10.702 5.20499 11.152 5.20499C12.342 5.20499 12.792 6.31999 12.792 7.44499C12.792 8.64499 12.492 9.90999 12.117 11.034C12.417 11.484 13.157 12.674 14.207 13.724C14.947 13.649 18.012 13.124 19.136 14.324C19.436 14.622 19.577 15.147 19.38 15.503Z" fill="#E62121"/>
</g>
<defs>
<clipPath id="clip0_9_3307">
<rect width="24" height="24" fill="white" transform="translate(0 0.5)"/>
</clipPath>
</defs>
</svg>
